<?xml version="1.0" standalone="no"?>
<!DOCTYPE svg PUBLIC "-//W3C//DTD SVG 20010904//EN"
 "http://www.w3.org/TR/2001/REC-SVG-20010904/DTD/svg10.dtd">
<svg version="1.0" xmlns="http://www.w3.org/2000/svg"
 width="200.000000pt" height="200.000000pt" viewBox="0 0 200.000000 200.000000"
 preserveAspectRatio="xMidYMid meet">

<g transform="translate(0.000000,200.000000) scale(0.100000,-0.100000)"
fill="#000000" stroke="none">
<path d="M894 1575 c0 -104 2 -146 3 -92 2 54 2 139 0 190 -1 51 -3 7 -3 -98z"/>
<path d="M794 1570 c0 -102 2 -143 3 -92 2 50 2 134 0 185 -1 50 -3 9 -3 -93z"/>
<path d="M1032 1605 c-1 -82 2 -143 6 -135 4 8 5 76 2 150 l-6 135 -2 -150z"/>
<path d="M844 1565 c0 -99 2 -138 3 -87 2 51 2 132 0 180 -1 48 -3 6 -3 -93z"/>
<path d="M944 1545 c1 -166 3 -183 23 -222 13 -23 27 -44 32 -48 6 -3 -2 16
-17 42 -26 46 -27 57 -33 228 l-6 180 1 -180z"/>
<path d="M992 1425 c0 -16 2 -22 5 -12 2 9 2 23 0 30 -3 6 -5 -1 -5 -18z"/>
<path d="M1041 1424 c0 -16 6 -39 15 -50 8 -10 12 -12 8 -4 -4 8 -11 30 -15
50 -7 35 -7 35 -8 4z"/>
<path d="M1090 1423 c0 -27 25 -63 55 -78 26 -12 67 -15 202 -13 l168 2 -181
5 c-196 6 -205 9 -230 66 -7 16 -13 25 -14 18z"/>
<path d="M800 1360 c0 -19 -8 -20 -192 -23 l-193 -2 198 -3 197 -2 0 25 c0 14
-2 25 -5 25 -3 0 -5 -9 -5 -20z"/>
<path d="M850 1364 c0 -10 5 -26 10 -34 8 -11 9 -7 4 15 -8 37 -14 45 -14 19z"/>
<path d="M901 1364 c0 -11 3 -14 6 -6 3 7 2 16 -1 19 -3 4 -6 -2 -5 -13z"/>
<path d="M1010 1351 c0 -6 4 -13 10 -16 6 -3 7 1 4 9 -7 18 -14 21 -14 7z"/>
<path d="M1085 1330 c10 -11 20 -20 23 -20 3 0 -3 9 -13 20 -10 11 -20 20 -23
20 -3 0 3 -9 13 -20z"/>
<path d="M910 1335 c0 -5 5 -17 10 -25 5 -8 10 -10 10 -5 0 6 -5 17 -10 25 -5
8 -10 11 -10 5z"/>
<path d="M1035 1309 c7 -19 74 -64 82 -55 3 3 1 6 -5 6 -6 0 -27 14 -47 31
-19 17 -33 25 -30 18z"/>
<path d="M870 1307 c0 -32 108 -167 134 -167 5 0 -9 16 -33 36 -23 20 -55 59
-71 88 -17 28 -30 47 -30 43z"/>
<path d="M1128 1299 c10 -11 54 -14 200 -15 l187 -1 -185 6 c-102 3 -192 10
-200 15 -12 7 -13 7 -2 -5z"/>
<path d="M614 1283 c190 -3 226 -9 226 -34 0 -5 -96 -10 -212 -11 l-213 -2
220 -6 c198 -4 220 -7 223 -22 3 -16 -14 -18 -220 -21 l-223 -2 236 -3 235 -2
26 -27 26 -28 2 -230 c0 -126 3 -231 5 -234 3 -2 5 98 5 223 0 178 3 227 13
224 9 -4 13 -62 17 -229 3 -123 7 -222 8 -219 2 3 4 97 5 209 2 157 5 205 15
209 7 2 -6 16 -30 31 -51 33 -100 87 -128 141 l-20 40 -208 -2 -207 -3 199 -2z"/>
<path d="M939 1274 c25 -52 145 -134 196 -133 11 0 -3 8 -31 18 -66 24 -97 45
-140 95 -20 22 -31 32 -25 20z"/>
<path d="M1020 1256 c0 -2 8 -10 18 -17 15 -13 16 -12 3 4 -13 16 -21 21 -21
13z"/>
<path d="M1138 1243 c7 -3 16 -2 19 1 4 3 -2 6 -13 5 -11 0 -14 -3 -6 -6z"/>
<path d="M1252 1233 c49 -2 127 -2 176 0 48 1 8 3 -88 3 -96 0 -136 -2 -88 -3z"/>
<path d="M1066 1219 c6 -10 106 -41 112 -34 3 2 -1 6 -9 8 -8 2 -35 11 -61 19
-26 8 -45 12 -42 7z"/>
<path d="M1268 1183 c45 -2 119 -2 165 0 45 1 8 3 -83 3 -91 0 -128 -2 -82 -3z"/>
<path d="M650 1130 l235 -5 0 -233 c0 -127 3 -232 8 -232 4 0 7 108 7 240 l0
240 -242 -2 -243 -2 235 -6z"/>
<path d="M1020 1134 c0 -7 71 -36 76 -31 2 2 -14 11 -36 20 -22 8 -40 13 -40
11z"/>
<path d="M1252 1133 c49 -2 127 -2 176 0 48 1 8 3 -88 3 -96 0 -136 -2 -88 -3z"/>
<path d="M1118 1093 c6 -2 18 -2 25 0 6 3 1 5 -13 5 -14 0 -19 -2 -12 -5z"/>
<path d="M625 1080 l210 -5 5 -210 6 -210 2 218 2 217 -217 -2 -218 -2 210 -6z"/>
<path d="M1252 1083 c49 -2 127 -2 176 0 48 1 8 3 -88 3 -96 0 -136 -2 -88 -3z"/>
<path d="M1030 869 c0 -141 3 -209 11 -209 7 0 9 62 7 194 -2 107 0 197 3 200
3 4 12 4 20 1 11 -4 14 -41 12 -200 -1 -120 1 -195 7 -195 6 0 10 78 10 198
l0 199 -35 10 -35 11 0 -209z"/>
<path d="M1123 1043 c9 -2 23 -2 30 0 6 3 -1 5 -18 5 -16 0 -22 -2 -12 -5z"/>
<path d="M600 1030 l185 -5 5 -185 6 -185 2 193 2 192 -192 -2 -193 -2 185 -6z"/>
<path d="M1252 1033 c49 -2 127 -2 176 0 48 1 8 3 -88 3 -96 0 -136 -2 -88 -3z"/>
<path d="M322 501 l2 -86 3 78 4 77 32 0 c47 0 57 -15 59 -89 l1 -66 6 68 c6
71 17 87 57 87 33 0 43 -20 47 -90 l3 -65 2 71 c2 86 -8 99 -71 92 -23 -3 -66
-2 -95 2 l-52 6 2 -85z"/>
<path d="M1335 579 c-33 -3 -45 -6 -27 -7 l32 -2 0 -77 c0 -42 3 -73 8 -69 4
4 7 38 7 74 0 66 0 67 30 72 50 9 14 16 -50 9z"/>
<path d="M606 558 c-20 -29 -20 -87 0 -116 18 -26 70 -30 100 -7 10 8 14 15 7
15 -6 0 -15 -4 -18 -10 -7 -12 -55 -13 -72 -2 -7 4 -14 19 -15 32 -3 24 0 25
55 28 55 3 57 4 57 30 0 38 -17 52 -61 52 -28 0 -42 -6 -53 -22z m94 -7 c18
-34 12 -41 -40 -41 -41 0 -50 3 -50 18 0 42 70 60 90 23z"/>
<path d="M770 500 l0 -80 45 0 c36 0 52 6 72 26 22 22 25 32 20 67 -7 51 -28
67 -89 67 l-48 0 0 -80z m110 50 c23 -23 25 -48 8 -85 -12 -27 -40 -39 -79
-33 -22 3 -24 8 -27 71 l-3 67 41 0 c27 0 47 -7 60 -20z"/>
<path d="M1002 573 c37 -4 64 -25 54 -41 -3 -5 -22 -12 -42 -15 -44 -7 -64
-23 -64 -51 0 -34 19 -46 72 -46 l48 0 0 68 c0 40 -5 73 -12 80 -7 7 -30 11
-52 10 l-41 -1 37 -4z m58 -103 c0 -40 0 -40 -39 -40 -44 0 -66 19 -56 49 6
19 25 27 73 30 19 1 22 -4 22 -39z"/>
<path d="M1120 498 c0 -99 8 -100 12 0 l2 72 42 0 c23 0 46 -6 52 -13 6 -7 13
-42 15 -77 l3 -65 2 71 c1 43 -3 75 -10 82 -7 7 -36 12 -65 12 l-53 0 0 -82z"/>
<path d="M1482 573 c37 -4 64 -25 54 -41 -3 -5 -22 -12 -42 -15 -44 -7 -64
-23 -64 -51 0 -34 19 -46 72 -46 l48 0 0 68 c0 40 -5 73 -12 80 -7 7 -30 11
-52 10 l-41 -1 37 -4z m53 -103 c0 -33 -2 -35 -36 -38 -41 -3 -64 16 -54 47 6
20 32 30 70 27 16 -1 20 -8 20 -36z"/>
</g>
</svg>
