<?xml version="1.0" standalone="no"?>
<!DOCTYPE svg PUBLIC "-//W3C//DTD SVG 20010904//EN"
 "http://www.w3.org/TR/2001/REC-SVG-20010904/DTD/svg10.dtd">
<svg version="1.0" xmlns="http://www.w3.org/2000/svg"
 width="200.000000pt" height="200.000000pt" viewBox="0 0 200.000000 200.000000"
 preserveAspectRatio="xMidYMid meet">

<g transform="translate(0.000000,200.000000) scale(0.100000,-0.100000)"
fill="#000000" stroke="none">
<path d="M949 1757 c-30 -16 -117 -67 -194 -112 -77 -45 -177 -103 -221 -129
-77 -44 -81 -48 -78 -77 2 -17 6 -35 10 -40 3 -5 -2 -12 -10 -15 -10 -4 -16
-18 -16 -35 0 -16 -4 -29 -10 -29 -5 0 -10 -5 -10 -11 0 -5 4 -7 10 -4 6 3 10
-1 10 -9 0 -9 -7 -16 -15 -16 -8 0 -15 -4 -15 -9 0 -5 11 -8 25 -7 14 0 25 4
25 7 0 4 7 10 16 13 13 5 14 3 6 -6 -6 -7 -10 -17 -9 -22 1 -5 -6 -10 -16 -12
-9 -1 -15 2 -11 7 3 5 1 9 -5 9 -25 0 -18 -19 12 -30 17 -8 39 -19 47 -26 14
-11 430 -254 777 -454 90 -51 168 -99 173 -106 12 -14 17 -10 -287 -183 l-161
-92 -276 158 -276 158 0 77 c0 88 3 90 65 55 22 -13 128 -75 235 -137 234
-136 254 -141 348 -89 53 29 59 34 44 45 -65 44 -724 414 -732 409 -5 -3 -12
0 -16 6 -5 8 -3 9 6 4 8 -5 11 -4 7 3 -12 18 -67 -9 -68 -33 0 -20 0 -20 -9 0
-5 12 -9 -68 -9 -201 l-1 -221 339 -197 c310 -180 342 -196 363 -185 72 38
643 373 656 384 2 2 5 18 6 35 2 23 -1 29 -12 25 -22 -8 -35 5 -21 21 7 9 8
18 3 23 -8 8 -424 249 -906 526 -115 66 -208 123 -208 126 0 7 421 252 452
264 12 5 255 -125 295 -157 7 -5 18 -6 24 -2 8 5 9 3 4 -6 -6 -10 -4 -12 11
-6 10 4 15 4 11 0 -4 -4 10 -17 30 -30 35 -21 38 -21 59 -5 12 9 19 21 16 26
-3 6 1 4 10 -3 13 -10 16 -9 21 9 4 15 11 19 24 15 10 -3 25 -1 33 4 11 7 11
10 2 10 -7 0 -28 11 -45 24 -49 35 -61 42 -53 25 4 -8 1 -7 -6 2 -13 16 -122
82 -329 201 l-96 56 -54 -31z m531 -282 c-7 -8 -20 -15 -29 -14 -12 0 -12 2
-2 6 11 5 11 7 0 15 -10 6 -7 7 9 3 14 -4 22 -2 22 6 0 7 3 9 6 6 4 -4 1 -13
-6 -22z m-995 -23 c-3 -3 -11 0 -18 7 -9 10 -8 11 6 5 10 -3 15 -9 12 -12z
m20 -52 c3 -5 1 -10 -4 -10 -6 0 -11 5 -11 10 0 6 2 10 4 10 3 0 8 -4 11 -10z
m-35 -81 c0 -11 -4 -18 -10 -14 -5 3 -7 12 -3 20 7 21 13 19 13 -6z"/>
<path d="M1540 1460 c-9 -6 -10 -10 -3 -10 6 0 15 5 18 10 8 12 4 12 -15 0z"/>
<path d="M925 1419 c-38 -23 -71 -42 -73 -44 -4 -3 90 -59 369 -219 130 -75
191 -105 205 -100 14 4 16 3 5 -4 -10 -8 4 -19 59 -50 74 -41 117 -47 86 -13
-12 13 -13 20 -4 29 8 8 0 15 -31 28 -39 15 -55 34 -29 34 6 0 3 7 -8 15 -19
14 -18 14 4 15 32 0 27 20 -5 20 -16 0 -35 5 -43 10 -12 7 -8 11 18 16 32 6
32 7 12 21 -11 8 -25 11 -30 8 -6 -4 -9 -2 -8 4 3 9 -434 271 -451 271 -3 0
-37 -19 -76 -41z m617 -398 c11 6 23 8 26 4 3 -3 -5 -9 -18 -12 -22 -6 -23 -7
-4 -14 16 -6 16 -8 2 -8 -9 -1 -20 4 -23 9 -4 6 -10 8 -14 6 -4 -3 -8 2 -8 10
0 10 4 11 10 5 7 -7 17 -7 29 0z"/>
<path d="M1450 1421 c-14 -4 -25 -13 -25 -21 0 -19 38 -25 65 -10 17 9 19 14
9 26 -12 15 -12 15 -49 5z"/>
<path d="M1540 1331 c0 -10 19 -25 25 -20 1 2 -3 10 -11 17 -8 7 -14 8 -14 3z"/>
<path d="M1551 1224 c0 -11 3 -14 6 -6 3 7 2 16 -1 19 -3 4 -6 -2 -5 -13z"/>
<path d="M1483 1143 c9 -2 25 -2 35 0 9 3 1 5 -18 5 -19 0 -27 -2 -17 -5z"/>
<path d="M355 1070 c-3 -5 -1 -10 4 -10 6 0 11 5 11 10 0 6 -2 10 -4 10 -3 0
-8 -4 -11 -10z"/>
<path d="M1660 685 c-14 -16 -3 -20 19 -6 8 5 9 11 3 15 -5 3 -15 -1 -22 -9z"/>
</g>
</svg>
